<?xml version="1.0" encoding="utf-8"?>
<!-- Generator: Adobe Illustrator 25.2.1, SVG Export Plug-In . SVG Version: 6.00 Build 0)  -->
<svg version="1.1" id="Layer_1" xmlns="http://www.w3.org/2000/svg" xmlns:xlink="http://www.w3.org/1999/xlink" x="0px" y="0px"
	 viewBox="0 0 137.1 133" style="enable-background:new 0 0 137.1 133;" xml:space="preserve">
<style type="text/css">
	.st0{fill:none;stroke:#45489D;stroke-width:9;stroke-linecap:round;stroke-miterlimit:10;}
	.st1{fill:none;stroke:#403B3C;stroke-width:9;stroke-linecap:round;stroke-miterlimit:10;}
	.st2{fill:none;stroke:#403B3C;stroke-width:9;stroke-miterlimit:10;}
	.st3{fill:none;stroke:#403B3C;stroke-width:9;stroke-linecap:round;stroke-linejoin:round;stroke-miterlimit:10;}
</style>
<path class="st0" d="M114,60.5c0.8,4.1,1.1,8.2,1,12.4c-1,26.9-21.7,51-48.7,53.9c-31,3.3-60.2-22.7-60.9-54.8
	C4.7,39.9,32.8,12.3,64.5,14.7c3.3,0.2,6.6,0.8,9.7,1.7"/>
<line class="st1" x1="131.2" y1="64.7" x2="131.2" y2="116.4"/>
<line class="st2" x1="75.1" y1="120.1" x2="75.1" y2="62.8"/>
<path class="st2" d="M131.2,60.4h-56V6.3H77C106.9,6.3,131.2,30.5,131.2,60.4z"/>
<path class="st3" d="M41.9,123.5c15.7,6,33.2,4.6,33.2-3.4"/>
<path class="st2" d="M75.1,120.1"/>
</svg>
