<svg id="Layer_1" data-name="Layer 1" xmlns="http://www.w3.org/2000/svg" viewBox="0 0 161.29 180.8"><defs><style>.cls-1{fill:#231f20}.cls-2,.cls-3{fill:none;stroke:#231f20;stroke-miterlimit:10}.cls-2{stroke-width:.45px}.cls-3{stroke-width:.75px}.cls-4{fill:#131114}.cls-5{fill:#5e14ff}</style></defs><path class="cls-1" d="M164.32 141.36v.14l-2.63 1.5-13.76 7.86a.17.17 0 010-.07l4.94-2.79z" transform="translate(-3.03 -2.73)"/><path class="cls-1" d="M164.32 141.36v.14l-2.63 1.5-13.76 7.86a.17.17 0 010-.07l4.94-2.79z" transform="translate(-3.03 -2.73)"/><path class="cls-4" d="M46.94 111.63l25.62 15.12v53.94l-25.62-15.3v-53.76z"/><path class="cls-5" d="M72.56 119.09l-25.6-15.21-.02-19.48 25.62 15.34v19.35z"/><path class="cls-5" d="M164.32 141.36L152.89 148l-4.89 2.76a.17.17 0 000 .07l-6.48 3.74-27.81-16-.23 32.06-12.94 7.37-9.83 5.57-.14-82.82 22-12.51 1.4-.8-.13 24.56 27.69 16.09.15-56.54.75-.43 21.87-12.5z" transform="translate(-3.03 -2.73)"/><path class="cls-5" d="M161.29 138.63v.14l-11.43 6.47 11.43-6.61z"/><path class="cls-5" d="M152.89 148l-4.95 2.86a.17.17 0 010-.07z" transform="translate(-3.03 -2.73)"/><path class="cls-4" d="M79.5 36.45l-17.56 11.1 7.01 4.05h.01l34.94 20.17-30.96 19.02-33.82-19.74-7.47-4.35-1.25-.73 1.2.76.2 90.22L0 138.77V46.6l59.27-33.87L80.65.51l18.64 10.53 10.67 6.15 43.95 25.32-31.46 18.18L79.5 36.45z"/><path class="cls-1" d="M31.65 66.7l-.05.03-1.2-.76 1.25.73zM110.06 17.13l-.1.06-10.67-6.15 10.77 6.09zM99.29 11.04L80.65.51 59.27 12.73 80.12 0l19.17 11.04z"/></svg>